<svg width="138" height="121" viewBox="0 0 138 121" fill="none" xmlns="http://www.w3.org/2000/svg">
<path d="M68.6716 63.0883H5.25732L68.6716 2.76045M68.6716 63.0883H132.086L68.6716 2.76045M68.6716 63.0883V2.76045" stroke="white" stroke-width="4"/>
<path d="M121.256 96.2953L119.038 92.6375V69.8916H121.256V96.2953ZM125.692 103.549L123.474 99.8301V69.8916H125.692V103.549ZM130.128 110.896L127.91 107.146V69.8916H130.128V110.896ZM98.3384 94.3896L100.556 98.0473V120.793H98.3384V94.3896ZM93.9027 87.1355L96.1205 90.8547V120.793H93.9027V87.1355ZM89.467 79.7891L91.6848 83.5391V120.793H89.467V79.7891ZM90.2371 69.8916H92.8246L124.183 120.793H121.595L90.2371 69.8916ZM95.4737 69.8916H98.092L129.419 120.793H126.77L95.4737 69.8916ZM100.679 69.8916H103.267L132.346 117.197V69.8916H134.563V120.793C134.563 120.793 133.691 120.793 131.945 120.793L100.679 69.8916ZM87.2491 73.4879V120.793H85.0312V69.8916C85.0312 69.8916 85.9143 69.8916 87.6804 69.8916L118.946 120.793H116.389L87.2491 73.4879Z" fill="white"/>
<path d="M68.1289 69.8916H70.3468V120.793H68.1289V69.8916ZM63.6932 69.8916H65.9111V120.793H63.6932V69.8916ZM59.2575 69.8916H61.4753V120.793H59.2575V69.8916ZM54.8218 69.8916H57.0396V120.793H54.8218V69.8916Z" fill="white"/>
<path d="M18.3897 120.793H16.1719V69.8916H40.7223V72.1047H18.3897V74.3178H40.7223V76.5309H18.3897V78.7441H40.7223V80.9572H18.3897V92.0227H39.675V94.2359H18.3897V96.449H39.675V98.6621H18.3897V100.875H39.675V103.088H18.3897V120.793ZM13.954 120.793H11.7362V69.8916H13.954V120.793ZM9.51832 120.793H7.30046V69.8916H9.51832V120.793ZM5.0826 120.793H2.86475V69.8916H5.0826V120.793Z" fill="white"/>
</svg>
