<svg width="60" height="60" viewBox="0 0 60 60" fill="none" xmlns="http://www.w3.org/2000/svg">
<rect width="60" height="60" rx="30" fill="#252525"/>
<path fill-rule="evenodd" clip-rule="evenodd" d="M30.3583 46.5716C27.087 46.5716 25.5668 46.092 22.9244 44.1734C21.2529 46.3318 15.96 48.0185 15.7292 45.1327C15.7292 42.9664 15.2517 41.1358 14.7104 39.1374C14.0657 36.6753 13.3335 33.9334 13.3335 29.9605C13.3335 20.4718 21.0858 13.3334 30.2707 13.3334C39.4636 13.3334 46.6667 20.8236 46.6667 30.0484C46.6976 39.1306 39.4011 46.5231 30.3583 46.5716ZM30.4936 21.535C26.0205 21.3032 22.5344 24.4128 21.7623 29.289C21.1256 33.3259 22.2558 38.2421 23.2189 38.4979C23.6805 38.6098 24.8425 37.6665 25.5668 36.9391C26.7645 37.77 28.1591 38.2691 29.6101 38.3859C34.245 38.6098 38.2053 35.066 38.5165 30.4161C38.6977 25.7564 35.1291 21.8097 30.4936 21.543L30.4936 21.535Z" fill="white"/>
</svg>
