<svg width="60" height="60" viewBox="0 0 60 60" fill="none" xmlns="http://www.w3.org/2000/svg">
<rect x="10.4346" y="10.4348" width="39.1304" height="39.1304" fill="white"/>
<path d="M30 0C46.5691 0 60 13.4309 60 30C60 46.5691 46.5691 60 30 60C13.4309 60 0 46.5691 0 30C0 13.4309 13.4309 0 30 0ZM40.3487 42.2283C40.9004 40.5352 43.4857 23.6622 43.8052 20.3374C43.9017 19.3304 43.5835 18.6613 42.96 18.3626C42.2061 18 41.0896 18.1813 39.7943 18.6483C38.0178 19.2887 15.3065 28.9317 13.9943 29.49C12.75 30.0183 11.5735 30.5948 11.5735 31.4296C11.5735 32.0165 11.9217 32.3465 12.8817 32.6896C13.8809 33.0457 16.397 33.8087 17.8826 34.2183C19.3135 34.6135 20.9426 34.2704 21.8557 33.703C22.8235 33.1017 33.9926 25.6278 34.7948 24.973C35.5957 24.3183 36.2348 25.157 35.58 25.813C34.9252 26.4678 27.2583 33.9091 26.2474 34.9396C25.02 36.1904 25.8913 37.487 26.7143 38.0061C27.6548 38.5983 34.4178 43.1348 35.4365 43.8626C36.4552 44.5904 37.4883 44.9204 38.4339 44.9204C39.3796 44.9204 39.8778 43.6748 40.3487 42.2283Z" fill="#252525"/>
</svg>
