<svg width="60" height="60" viewBox="0 0 60 60" fill="none" xmlns="http://www.w3.org/2000/svg">
<rect x="10.4346" y="10.4348" width="39.1304" height="39.1304" fill="white"/>
<path d="M30 0C13.4583 0 0 13.4583 0 30C0 46.5417 13.4583 60 30 60C46.543 60 60 46.5417 60 30C60 13.4583 46.543 0 30 0ZM43.0083 35.9152C45.9261 38.5057 46.5326 39.4304 46.6317 39.5883C47.8409 41.5057 45.2909 41.7391 45.2909 41.7391H39.917C39.917 41.7391 38.6087 41.7535 37.4909 41.0126C35.6687 39.8191 33.7604 37.5052 32.4196 37.907C31.2939 38.2435 31.3043 39.7644 31.3043 41.0648C31.3043 41.5304 30.9039 41.7391 30 41.7391C29.0961 41.7391 28.7204 41.7391 28.32 41.7391C25.3761 41.7391 22.1817 40.7478 18.9952 37.4178C14.4874 32.7104 10.5339 23.2278 10.5339 23.2278C10.5339 23.2278 10.3004 22.7504 10.5548 22.4596C10.843 22.1335 11.627 22.1752 11.627 22.1752L16.8378 22.1739C16.8378 22.1739 17.3283 22.2665 17.6804 22.5143C17.9713 22.7178 18.133 23.1065 18.133 23.1065C18.133 23.1065 19.0083 25.997 20.1235 27.84C22.3017 31.4374 23.3152 31.5287 24.0548 31.1413C25.1348 30.5804 24.7826 26.7561 24.7826 26.7561C24.7826 26.7561 24.8309 25.1139 24.2674 24.3822C23.833 23.8161 23.0022 23.5148 22.6396 23.4678C22.3461 23.43 22.8365 22.9161 23.4613 22.6226C24.2961 22.2509 25.4322 22.1557 27.3913 22.1739C28.9161 22.1883 29.3557 22.2796 29.9504 22.4165C31.7491 22.8313 31.3043 23.9257 31.3043 27.7683C31.3043 28.9996 31.1348 30.7304 32.0635 31.3043C32.4639 31.5522 33.8361 31.8548 36.2778 27.8896C37.4374 26.0087 38.3596 22.8887 38.3596 22.8887C38.3596 22.8887 38.55 22.5457 38.8461 22.3761C39.1487 22.2026 39.1396 22.2065 39.5544 22.2065C39.9691 22.2065 44.1287 22.1739 45.0417 22.1739C45.9535 22.1739 46.8091 22.1635 46.9565 22.6983C47.1678 23.4665 46.2835 26.0987 44.0426 28.9552C40.3604 33.643 39.9522 33.2048 43.0083 35.9152Z" fill="#252525"/>
</svg>
